<svg width="1080" height="1080" viewBox="0 0 1080 1080" fill="none" xmlns="http://www.w3.org/2000/svg">
<g clip-path="url(#clip0_40_62)">
<g filter="url(#filter0_d_40_62)">
<path d="M406.949 552.573L647.319 413.808L603.974 388.784L551.621 419.007C553.498 410.991 554.248 402.758 553.873 394.309C553.498 385.859 551.246 377.41 547.118 368.96C543.365 360.728 537.173 352.387 528.541 343.937C520.66 335.488 509.965 327.363 496.454 319.564C479.191 309.598 459.113 301.69 436.221 295.84C413.328 289.991 389.498 286.849 364.729 286.416C340.335 285.766 315.566 288.149 290.422 293.565C266.029 298.982 243.136 307.864 221.745 320.214C200.354 332.563 184.967 345.779 175.585 359.861C166.578 374.16 162.45 388.459 163.2 402.758C164.326 416.841 169.768 430.381 179.525 443.381C190.033 456.38 204.107 467.971 221.745 478.153C248.39 493.536 276.912 503.068 307.31 506.751C337.708 510.435 367.731 511.085 397.379 508.701L363.04 528.525C328.889 548.24 293.612 557.557 257.21 556.473C220.431 555.607 185.905 545.857 153.631 527.225C132.615 515.093 116.102 501.877 104.093 487.578C92.0837 473.279 83.6398 457.788 78.7611 441.106L25.2828 449.23C31.2874 468.296 41.9831 486.169 57.3698 502.852C72.7565 519.534 92.6467 534.916 117.04 548.999C139.557 561.998 162.825 571.964 186.843 578.897C211.237 586.046 235.818 589.838 260.587 590.271C285.356 591.138 309.937 588.429 334.331 582.147C359.1 576.08 383.306 566.223 406.949 552.573ZM474.5 465.479C459.489 474.145 442.788 480.32 424.399 484.003C406.386 487.469 387.997 488.769 369.232 487.903C350.843 487.253 332.83 484.653 315.191 480.103C297.928 475.337 282.354 468.946 268.468 460.929C254.958 453.13 244.262 444.356 236.381 434.606C229.251 424.857 225.31 414.782 224.56 404.383C224.56 393.984 227.75 383.693 234.129 373.51C241.26 363.327 252.331 353.903 267.342 345.237C282.354 336.571 298.491 330.288 315.754 326.388C333.393 322.272 351.031 320.322 368.669 320.539C386.683 320.972 403.946 323.355 420.459 327.688C437.347 332.238 452.733 338.521 466.619 346.537C480.505 354.553 491.388 363.652 499.269 373.835C507.525 383.801 512.216 394.092 513.342 404.708C514.843 415.541 512.404 426.265 506.024 436.881C500.019 447.28 489.511 456.813 474.5 465.479ZM780.768 768.38L1021.14 629.614L977.794 604.59L925.441 634.813C927.318 626.797 928.068 618.564 927.693 610.115C927.318 601.666 925.066 593.216 920.938 584.767C917.185 576.534 910.993 568.193 902.361 559.743C894.48 551.294 883.784 543.169 870.274 535.37C853.011 525.404 832.933 517.496 810.041 511.646C787.148 505.797 763.318 502.655 738.549 502.222C714.155 501.572 689.386 503.955 664.242 509.372C639.849 514.788 616.956 523.671 595.565 536.02C574.174 548.369 558.787 561.585 549.405 575.667C540.398 589.966 536.27 604.265 537.02 618.564C538.146 632.647 543.588 646.188 553.345 659.187C563.853 672.186 577.926 683.777 595.565 693.96C622.21 709.342 650.732 718.875 681.13 722.558C711.528 726.241 741.551 726.891 771.199 724.508L736.86 744.331C702.709 764.047 667.432 773.363 631.029 772.279C594.251 771.413 559.725 761.664 527.451 743.031C506.434 730.899 489.922 717.683 477.913 703.384C465.904 689.085 457.46 673.594 452.581 656.912L399.103 665.036C405.107 684.102 415.803 701.976 431.19 718.658C446.576 735.34 466.467 750.723 490.86 764.805C513.377 777.804 536.645 787.77 560.663 794.703C585.057 801.853 609.638 805.644 634.407 806.077C659.176 806.944 683.757 804.236 708.151 797.953C732.92 791.887 757.125 782.029 780.768 768.38ZM848.32 681.285C833.308 689.952 816.608 696.126 798.219 699.809C780.206 703.276 761.817 704.576 743.052 703.709C724.663 703.059 706.65 700.459 689.011 695.909C671.748 691.143 656.174 684.752 642.288 676.736C628.778 668.936 618.082 660.162 610.201 650.412C603.071 640.663 599.13 630.589 598.38 620.189C598.38 609.79 601.569 599.499 607.949 589.316C615.08 579.134 626.151 569.709 641.162 561.043C656.174 552.377 672.311 546.094 689.574 542.194C707.212 538.078 724.851 536.128 742.489 536.345C760.503 536.778 777.766 539.161 794.279 543.494C811.167 548.044 826.553 554.327 840.439 562.343C854.324 570.359 865.208 579.459 873.089 589.641C881.345 599.607 886.036 609.898 887.162 620.514C888.663 631.347 886.224 642.071 879.844 652.687C873.839 663.087 863.331 672.619 848.32 681.285Z" fill="url(#paint0_linear_40_62)"/>
</g>
</g>
<defs>
<filter id="filter0_d_40_62" x="-32.7583" y="240.594" width="1064.09" height="617.681" filterUnits="userSpaceOnUse" color-interpolation-filters="sRGB">
<feFlood flood-opacity="0" result="BackgroundImageFix"/>
<feColorMatrix in="SourceAlpha" type="matrix" values="0 0 0 0 0 0 0 0 0 0 0 0 0 0 0 0 0 0 127 0" result="hardAlpha"/>
<feOffset dy="4"/>
<feGaussianBlur stdDeviation="2"/>
<feComposite in2="hardAlpha" operator="out"/>
<feColorMatrix type="matrix" values="0 0 0 0 0 0 0 0 0 0 0 0 0 0 0 0 0 0 0.25 0"/>
<feBlend mode="normal" in2="BackgroundImageFix" result="effect1_dropShadow_40_62"/>
<feBlend mode="normal" in="SourceGraphic" in2="effect1_dropShadow_40_62" result="shape"/>
</filter>
<linearGradient id="paint0_linear_40_62" x1="834.598" y1="361.984" x2="538.628" y2="874.664" gradientUnits="userSpaceOnUse">
<stop offset="0.0677083" stop-color="#FF4689"/>
<stop offset="0.515625" stop-color="#6AC2CE"/>
<stop offset="0.989583" stop-color="#FF6746"/>
</linearGradient>
<clipPath id="clip0_40_62">
<rect width="1080" height="1080" fill="white"/>
</clipPath>
</defs>
</svg>
